<?xml version="1.0" encoding="UTF-8" standalone="no"?>
<svg width="76px" height="79px" viewBox="0 0 76 79" version="1.1" xmlns="http://www.w3.org/2000/svg" xmlns:xlink="http://www.w3.org/1999/xlink" xmlns:sketch="http://www.bohemiancoding.com/sketch/ns">
    <!-- Generator: Sketch 3.2.2 (9983) - http://www.bohemiancoding.com/sketch -->
    <title>printer</title>
    <desc>Created with Sketch.</desc>
    <defs></defs>
    <g id="Page-1" stroke="none" stroke-width="1" fill="none" fill-rule="evenodd" sketch:type="MSPage">
        <g id="printer" sketch:type="MSLayerGroup">
            <path d="M68.313,75.068 C67.29,75.068 66.456,74.236 66.456,73.212 C66.456,72.188 67.29,71.354 68.313,71.354 C69.337,71.354 70.17,72.188 70.17,73.212 C70.17,74.236 69.338,75.068 68.313,75.068 L68.313,75.068 Z M68.313,71.93 C67.606,71.93 67.032,72.505 67.032,73.212 C67.032,73.918 67.606,74.493 68.313,74.493 C69.02,74.493 69.594,73.918 69.594,73.212 C69.596,72.505 69.02,71.93 68.313,71.93 L68.313,71.93 Z" id="Shape" fill="#FFFFFF" sketch:type="MSShapeGroup"></path>
            <path d="M7.824,74.389 C7.824,74.919 7.393,75.35 6.863,75.35 L6.863,75.35 C6.332,75.35 5.902,74.919 5.902,74.389 L5.902,71.891 C5.902,71.36 6.332,70.93 6.863,70.93 L6.863,70.93 C7.393,70.93 7.824,71.36 7.824,71.891 L7.824,74.389 L7.824,74.389 Z" id="Shape" fill="#FFFFFF" sketch:type="MSShapeGroup"></path>
            <path d="M10.515,74.389 C10.515,74.919 10.084,75.35 9.555,75.35 L9.555,75.35 C9.024,75.35 8.594,74.919 8.594,74.389 L8.594,71.891 C8.594,71.36 9.024,70.93 9.555,70.93 L9.555,70.93 C10.085,70.93 10.515,71.36 10.515,71.891 L10.515,74.389 L10.515,74.389 Z" id="Shape" fill="#FFFFFF" sketch:type="MSShapeGroup"></path>
            <path d="M74.359,68.415 C73.945,68.415 73.607,68.332 73.607,69.253 L73.607,76.882 C73.607,77.803 73.945,77.643 74.359,77.643 C74.775,77.643 75.113,77.803 75.113,76.882 L75.113,69.253 C75.113,68.332 74.775,68.415 74.359,68.415 L74.359,68.415 Z" id="Shape" fill="#FFFFFF" sketch:type="MSShapeGroup"></path>
            <path d="M1.64,68.415 C1.224,68.415 0.888,68.332 0.888,69.253 L0.888,76.882 C0.888,77.803 1.225,77.643 1.64,77.643 C2.055,77.643 2.393,77.803 2.393,76.882 L2.393,69.253 C2.393,68.332 2.056,68.415 1.64,68.415 L1.64,68.415 Z" id="Shape" fill="#FFFFFF" sketch:type="MSShapeGroup"></path>
            <path d="M74.229,1.542 C73.813,1.542 73.477,1.458 73.477,2.379 L73.477,2.818 C73.477,0.449 71.678,0.449 70.815,0.449 L67.653,0.449 C66.996,0.449 65.799,0.456 65.266,1.504 L10.854,1.504 C10.314,0.457 9.106,0.449 8.44,0.449 L5.237,0.449 C4.424,0.449 2.812,0.475 2.591,2.387 L2.591,2.379 C2.591,1.458 2.233,1.542 1.791,1.542 C1.349,1.542 0.991,1.458 0.991,2.379 L0.991,10.008 C0.991,10.929 1.349,10.767 1.791,10.767 C2.217,10.767 2.562,10.908 2.586,10.092 C2.779,11.728 3.996,11.974 4.853,12.006 L4.853,68.236 C3.495,68.372 2.427,69.507 2.427,70.9 L2.427,75.378 C2.427,76.861 3.634,78.068 5.118,78.068 L70.883,78.068 C72.366,78.068 73.574,76.861 73.574,75.378 L73.574,70.9 C73.574,69.506 72.506,68.371 71.146,68.234 L71.146,12.007 C72.068,11.98 73.476,11.74 73.476,9.645 L73.476,10.008 C73.476,10.929 73.812,10.767 74.228,10.767 C74.644,10.767 74.982,10.929 74.982,10.008 L74.982,2.379 C74.982,1.458 74.645,1.542 74.229,1.542 L74.229,1.542 Z M65.027,2.465 C65.015,2.584 64.991,2.685 64.991,2.819 L64.991,3.755 C64.943,3.741 64.894,3.726 64.843,3.726 L11.279,3.726 C11.226,3.726 11.178,3.741 11.131,3.755 L11.131,2.818 C11.131,2.684 11.106,2.584 11.095,2.464 L65.027,2.465 L65.027,2.465 Z M36.5,5.232 C37.56,5.232 38.422,6.253 38.422,7.509 L38.422,11.503 C38.422,12.759 37.56,13.781 36.5,13.781 L33.041,13.781 C31.981,13.781 31.12,12.759 31.12,11.503 L31.12,7.509 C31.12,6.253 31.982,5.232 33.041,5.232 L36.5,5.232 L36.5,5.232 Z M11.131,9.645 L11.131,4.733 C11.179,4.747 11.227,4.762 11.279,4.762 L31.898,4.762 C30.986,5.25 30.35,6.294 30.35,7.509 L30.35,9.814 L14.58,9.814 C14.318,9.814 14.105,10.105 14.105,10.463 C14.105,10.821 14.318,11.112 14.58,11.112 L30.351,11.112 L30.351,11.503 C30.351,13.183 31.558,14.549 33.041,14.549 L34.291,14.549 L34.291,16.677 L35.252,16.677 L35.252,14.549 L36.5,14.549 C37.984,14.549 39.191,13.182 39.191,11.503 L39.191,11.112 L62.343,11.112 C62.607,11.112 62.82,10.821 62.82,10.463 C62.82,10.105 62.607,9.814 62.343,9.814 L39.191,9.814 L39.191,7.509 C39.191,6.294 38.554,5.25 37.642,4.762 L64.842,4.762 C64.895,4.762 64.944,4.747 64.99,4.733 L64.99,9.645 C64.99,12.012 66.788,12.012 67.65,12.012 L70.185,12.012 L70.185,68.21 L64.773,68.21 L64.773,37.934 L67.943,37.934 C68.558,37.934 68.49,37.059 68.49,35.981 C68.49,34.903 68.558,34.028 67.943,34.028 L64.773,34.028 L64.773,32.424 L68.103,32.424 C68.316,32.424 68.49,32.252 68.49,32.04 C68.49,31.828 68.316,31.655 68.103,31.655 L64.773,31.655 L64.773,14.557 C64.773,13.904 64.357,13.373 63.843,13.373 C63.33,13.373 62.914,13.903 62.914,14.557 L62.914,31.655 L14.104,31.655 L14.104,14.557 C14.104,13.904 13.687,13.373 13.175,13.373 C12.662,13.373 12.246,13.903 12.246,14.557 L12.246,31.655 L8.531,31.655 C8.319,31.655 8.146,31.828 8.146,32.04 C8.146,32.252 8.318,32.424 8.531,32.424 L12.246,32.424 L12.246,34.028 L8.753,34.028 C8.136,34.028 8.146,34.903 8.146,35.981 C8.146,37.059 8.137,37.934 8.753,37.934 L12.246,37.934 L12.246,68.209 L5.813,68.209 L5.813,12.011 L8.438,12.011 C9.313,12.011 11.131,12.011 11.131,9.645 L11.131,9.645 Z M14.105,34.027 L14.105,32.423 L62.917,32.423 L62.917,34.027 L14.105,34.027 L14.105,34.027 Z M62.917,37.934 L62.917,68.209 L14.105,68.209 L14.105,37.934 L62.917,37.934 L62.917,37.934 Z M3.315,9.645 L3.315,2.818 C3.315,1.457 3.935,1.217 5.236,1.217 L8.439,1.217 C9.741,1.217 10.361,1.457 10.361,2.818 L10.361,9.644 C10.361,11.003 9.741,11.242 8.439,11.242 L5.236,11.242 C3.935,11.243 3.315,11.003 3.315,9.645 L3.315,9.645 Z M72.805,70.9 L72.805,75.377 C72.805,76.438 71.944,77.299 70.883,77.299 L5.118,77.299 C4.058,77.299 3.196,76.438 3.196,75.377 L3.196,70.9 C3.196,69.839 4.058,68.978 5.118,68.978 L70.883,68.978 C71.941,68.979 72.805,69.841 72.805,70.9 L72.805,70.9 Z M72.707,9.645 C72.707,11.004 72.098,11.243 70.814,11.243 L67.652,11.243 C66.37,11.243 65.759,11.004 65.759,9.645 L65.759,2.818 C65.759,1.457 66.368,1.217 67.652,1.217 L70.814,1.217 C72.097,1.217 72.707,1.457 72.707,2.818 L72.707,9.645 L72.707,9.645 Z" id="Shape" fill="#FFFFFF" sketch:type="MSShapeGroup"></path>
            <path d="M49.691,27.972 L51.577,27.164 L49.152,22.382 L45.177,21.977 L40.826,22.853 L44.57,24.537 L49.691,27.972 Z" id="Shape" sketch:type="MSShapeGroup"></path>
            <g id="Group" transform="translate(29.000000, 17.000000)" fill="#FFFFFF" sketch:type="MSShapeGroup">
                <path d="M5.214,4.312 L5.019,4.505 L1.66,5.33 L14.422,5.33 L16.177,4.977 L19.646,5.33 L21.05,5.33 L20.581,4.371 L20.136,4.312 L5.214,4.312 Z" id="Shape"></path>
                <path d="M11.827,5.852 L12.191,5.779 L1.097,5.779 L0.808,6.933 L14.229,6.933 L11.827,5.852 Z" id="Shape"></path>
                <path d="M21.27,5.779 L20.355,5.779 L20.94,6.933 L21.834,6.933 L21.27,5.779 Z" id="Shape"></path>
                <path d="M7.309,2.237 L7.197,2.348 L15.803,2.348 L15.668,1.39 L5.649,1.39 L7.309,2.237 Z" id="Shape"></path>
                <path d="M16.002,3.763 L15.866,2.797 L6.744,2.797 L5.667,3.863 L16.752,3.863 L16.002,3.763 Z" id="Shape"></path>
                <path d="M22.054,7.382 L21.168,7.382 L22.578,10.164 L20.693,10.972 L15.57,7.537 L15.226,7.382 L0.696,7.382 L0.101,9.76 L2.675,14.575 L21.932,14.655 L23.547,10.434 L22.054,7.382 Z" id="Shape"></path>
                <path d="M15.605,0.941 L15.484,0.083 L4.968,0.083 L5.012,0.941 L15.605,0.941 Z" id="Shape"></path>
            </g>
        </g>
    </g>
</svg>